<svg width="308" height="64" viewBox="0 0 308 64" fill="none" xmlns="http://www.w3.org/2000/svg">
<g clip-path="url(#clip0_137_11647)">
<path d="M63.7298 14.54C63.4449 10.8501 61.8502 7.38367 59.2333 4.76675C56.6163 2.14983 53.1497 0.554898 49.4598 0.27C40.4932 -0.09 31.5199 -0.09 22.5399 0.27C18.8004 0.518715 15.2867 2.14734 12.68 4.84L5.42002 12.1C2.42395 14.7877 0.579231 18.527 0.269878 22.54C-0.0901221 31.5133 -0.0901221 40.4867 0.269878 49.46C0.556769 53.1492 2.15237 56.6145 4.7689 59.231C7.38543 61.8475 10.8507 63.4431 14.5399 63.73C23.5132 64.09 32.4865 64.09 41.4598 63.73C44.7166 63.5075 47.8142 62.2376 50.2899 60.11C53.7502 56.9981 57.0416 53.7034 60.15 50.24C62.2771 47.7871 63.5353 44.7009 63.7298 41.46C64.0898 32.4933 64.0898 23.52 63.7298 14.54ZM52.7298 49.32C52.4814 52.2595 51.2022 55.0167 49.118 57.1045C47.0339 59.1923 44.279 60.4764 41.3399 60.73C36.9099 60.91 32.4299 61 27.9999 61C23.5699 61 19.09 60.91 14.68 60.73C11.7405 60.4815 8.98316 59.2022 6.89537 57.1181C4.80757 55.034 3.5235 52.2791 3.26988 49.34C2.90988 40.49 2.90988 31.51 3.26988 22.68C3.51835 19.7405 4.79756 16.9833 6.88169 14.8955C8.96583 12.8077 11.7209 11.5236 14.66 11.27C19.08 11.09 23.5699 11 27.9999 11C32.4299 11 36.9199 11.09 41.3199 11.27C44.2594 11.5185 47.0166 12.7977 49.1044 14.8819C51.1921 16.966 52.4762 19.7209 52.7298 22.66C53.0698 31.51 53.0698 40.49 52.7298 49.32Z" fill="black"/>
<path d="M52.7298 22.66C52.4762 19.7209 51.1921 16.966 49.1044 14.8819C47.0166 12.7977 44.2594 11.5185 41.3199 11.27C36.9199 11.09 32.4299 11 27.9999 11C23.5699 11 19.08 11.09 14.66 11.27C11.7209 11.5236 8.96583 12.8077 6.88169 14.8955C4.79756 16.9833 3.51835 19.7405 3.26988 22.68C2.90988 31.51 2.90988 40.49 3.26988 49.34C3.5235 52.2791 4.80757 55.034 6.89537 57.1181C8.98316 59.2022 11.7405 60.4815 14.68 60.73C19.09 60.91 23.5699 61 27.9999 61C32.4299 61 36.9099 60.91 41.3399 60.73C44.279 60.4764 47.0339 59.1923 49.118 57.1045C51.2022 55.0167 52.4814 52.2595 52.7298 49.32C53.0698 40.49 53.0698 31.51 52.7298 22.66ZM47.7298 40.79C47.5564 42.6014 46.7455 44.2923 45.4415 45.5615C44.1375 46.8307 42.4254 47.5956 40.61 47.72C36.43 47.9 32.1999 48 28.0199 48C23.8399 48 19.61 47.9 15.42 47.72C13.6064 47.5933 11.8965 46.8274 10.5946 45.5584C9.29266 44.2894 8.48304 42.5998 8.30992 40.79C7.92991 34.9362 7.92991 29.0638 8.30992 23.21C8.48336 21.3986 9.29428 19.7077 10.5982 18.4385C11.9022 17.1693 13.6146 16.4044 15.43 16.28C19.61 16.1 23.8399 16 28.0199 16C32.1999 16 36.43 16.1 40.62 16.28C42.4336 16.4067 44.1435 17.1726 45.4454 18.4416C46.7473 19.7105 47.5567 21.4002 47.7298 23.21C48.1032 29.0643 48.0965 34.9366 47.7098 40.79H47.7298Z" fill="#FBCD19"/>
<path d="M47.7199 23.21C47.5446 21.3994 46.733 19.7095 45.4294 18.4407C44.1258 17.1719 42.4148 16.4064 40.6001 16.28C36.4101 16.1 32.18 16 28 16C23.82 16 19.5901 16.1 15.4101 16.28C13.5947 16.4044 11.8823 17.1693 10.5783 18.4385C9.27437 19.7077 8.46346 21.3986 8.29001 23.21C7.91 29.0638 7.91 34.9362 8.29001 40.79C8.46119 42.6005 9.27017 44.2913 10.5725 45.5606C11.8748 46.83 13.5858 47.5953 15.4001 47.72C19.5901 47.9 23.82 48 28 48C32.18 48 36.4101 47.9 40.5901 47.72C42.4065 47.5959 44.1201 46.8313 45.4258 45.5623C46.7314 44.2933 47.5442 42.6022 47.7199 40.79C48.1 34.9362 48.1 29.0638 47.7199 23.21V23.21ZM45.7199 40.65C45.5794 41.9702 44.9817 43.1996 44.0302 44.1255C43.0788 45.0514 41.8335 45.6155 40.51 45.72C36.36 45.91 32.16 46 28.01 46C23.86 46 19.66 45.91 15.51 45.72C14.1865 45.6155 12.9412 45.0514 11.9897 44.1255C11.0383 43.1996 10.4406 41.9702 10.3 40.65C9.92002 34.8896 9.92002 29.1104 10.3 23.35C10.4406 22.0298 11.0383 20.8004 11.9897 19.8745C12.9412 18.9486 14.1865 18.3845 15.51 18.28C19.66 18.09 23.86 18 28.01 18C32.16 18 36.37 18.09 40.51 18.28C41.8335 18.3845 43.0788 18.9486 44.0302 19.8745C44.9817 20.8004 45.5794 22.0298 45.7199 23.35C46.0966 29.1106 46.0933 34.8898 45.7099 40.65H45.7199Z" fill="black"/>
<path d="M45.7199 40.65C45.5772 41.971 44.9775 43.2006 44.0244 44.1264C43.0713 45.0521 41.8246 45.6158 40.5 45.72C36.35 45.91 32.15 46 28 46C23.85 46 19.65 45.91 15.5 45.72C14.1758 45.6174 12.9296 45.0539 11.9777 44.1277C11.0259 43.2014 10.4287 41.9709 10.29 40.65C9.91 34.8896 9.91 29.1104 10.29 23.35C10.4287 22.0291 11.0259 20.7986 11.9777 19.8723C12.9296 18.9461 14.1758 18.3826 15.5 18.28C19.65 18.09 23.85 18 28 18C32.15 18 36.36 18.09 40.5 18.28C41.8246 18.3842 43.0713 18.9479 44.0244 19.8736C44.9775 20.7994 45.5772 22.029 45.7199 23.35C46.0999 29.1104 46.0999 34.8896 45.7199 40.65Z" fill="white"/>
<path fill-rule="evenodd" clip-rule="evenodd" d="M20 24C20.5304 24 21.0392 24.2107 21.4143 24.5858C21.7894 24.9609 22 25.4696 22 26V30C22 30.5304 21.7894 31.0391 21.4143 31.4142C21.0392 31.7893 20.5304 32 20 32C19.4696 32 18.961 31.7893 18.5859 31.4142C18.2109 31.0391 18 30.5304 18 30V26C18 25.4696 18.2109 24.9609 18.5859 24.5858C18.961 24.2107 19.4696 24 20 24ZM27.9999 41C22.8899 41 18.2598 39.28 16.2098 36.61C16.067 36.3993 16.0099 36.1421 16.0502 35.8907C16.0904 35.6394 16.2249 35.4128 16.4264 35.2572C16.6279 35.1017 16.8811 35.0288 17.1344 35.0534C17.3878 35.0781 17.6222 35.1985 17.7899 35.39C19.4599 37.55 23.5599 39 27.9999 39C32.4399 39 36.5498 37.55 38.2098 35.39C38.2865 35.277 38.3855 35.1809 38.5006 35.1076C38.6158 35.0343 38.7447 34.9853 38.8795 34.9637C39.0143 34.9422 39.1523 34.9484 39.2846 34.9821C39.4168 35.0158 39.5408 35.0762 39.6488 35.1597C39.7569 35.2431 39.8467 35.3478 39.9127 35.4672C39.9788 35.5867 40.0196 35.7184 40.0328 35.8543C40.0461 35.9902 40.0314 36.1273 39.9896 36.2573C39.9478 36.3872 39.8799 36.5073 39.7899 36.61C37.7399 39.28 33.0699 41 27.9999 41ZM37.4143 24.5858C37.0392 24.2107 36.5304 24 36 24C35.4696 24 34.961 24.2107 34.5859 24.5858C34.2109 24.9609 34 25.4696 34 26V30C34 30.5304 34.2109 31.0391 34.5859 31.4142C34.961 31.7893 35.4696 32 36 32C36.5304 32 37.0392 31.7893 37.4143 31.4142C37.7894 31.0391 38 30.5304 38 30V26C38 25.4696 37.7894 24.9609 37.4143 24.5858Z" fill="black"/>
</g>
<path d="M92.9415 50.3904V21.992L111.598 50.3904H116.54V13.6604H111.598V42.0588L92.9415 13.6604H88V50.3904H92.9415Z" fill="black"/>
<path d="M126.391 19.6551C128.106 19.6551 129.517 18.2326 129.517 16.5053C129.517 14.7273 128.106 13.3556 126.391 13.3556C124.677 13.3556 123.265 14.7273 123.265 16.5053C123.265 18.2326 124.677 19.6551 126.391 19.6551ZM124.072 50.3904H128.811V25.5481H124.072V50.3904Z" fill="black"/>
<path d="M134.18 37.9947C134.18 45.8182 138.97 51 146.231 51C152.181 51 156.77 47.393 157.728 42.008H152.988C152.131 44.9545 149.61 46.7326 146.231 46.7326C141.743 46.7326 138.869 43.2781 138.869 37.9439C138.869 32.5588 141.945 29.1043 146.433 29.1043C149.61 29.1043 152.131 30.7807 152.937 33.9305H157.677C156.82 28.393 152.484 24.8369 146.282 24.8369C139.071 24.8369 134.18 30.2219 134.18 37.9947Z" fill="black"/>
<path d="M173.368 51C179.469 51 183.604 48.0027 184.814 42.6684H180.377C179.57 45.5134 177.15 47.0374 173.469 47.0374C168.779 47.0374 166.057 44.1417 165.704 38.9091L184.764 38.8583V37.0802C184.764 29.7139 180.175 24.8369 173.166 24.8369C166.006 24.8369 161.115 30.2219 161.115 37.9947C161.115 45.7166 166.107 51 173.368 51ZM173.166 28.8503C177.351 28.8503 180.024 31.5936 180.024 35.7086H165.804C166.41 31.3396 169.032 28.8503 173.166 28.8503Z" fill="black"/>
<path d="M195.806 50.3904V21.992L214.463 50.3904H219.404V13.6604H214.463V42.0588L195.806 13.6604H190.864V50.3904H195.806Z" fill="black"/>
<path d="M224.617 37.9439C224.617 45.615 230.062 51 237.475 51C244.836 51 250.282 45.615 250.282 37.9439C250.282 30.2727 244.836 24.8877 237.475 24.8877C230.062 24.8877 224.617 30.2727 224.617 37.9439ZM229.407 37.9439C229.407 32.762 232.684 29.1551 237.475 29.1551C242.214 29.1551 245.542 32.762 245.542 37.9439C245.542 43.1257 242.214 46.7326 237.475 46.7326C232.684 46.7326 229.407 43.1257 229.407 37.9439Z" fill="black"/>
<path d="M265.563 51C269.496 51 272.824 49.2727 274.438 45.869L274.841 50.3904H279.077V13H274.387V29.5615C272.723 26.5134 269.547 24.8369 265.765 24.8369C258.454 24.8369 254.067 30.4251 254.067 38.0455C254.067 45.615 258.403 51 265.563 51ZM266.521 46.6818C261.681 46.6818 258.857 43.0241 258.857 37.8931C258.857 32.8128 261.681 29.1551 266.521 29.1551C271.362 29.1551 274.337 32.8128 274.337 37.8931C274.337 43.0749 271.362 46.6818 266.521 46.6818Z" fill="black"/>
<path d="M296.554 51C302.655 51 306.79 48.0027 308 42.6684H303.563C302.756 45.5134 300.336 47.0374 296.655 47.0374C291.965 47.0374 289.243 44.1417 288.89 38.9091L307.95 38.8583V37.0802C307.95 29.7139 303.361 24.8369 296.352 24.8369C289.192 24.8369 284.301 30.2219 284.301 37.9947C284.301 45.7166 289.293 51 296.554 51ZM296.352 28.8503C300.537 28.8503 303.21 31.5936 303.21 35.7086H288.99C289.595 31.3396 292.217 28.8503 296.352 28.8503Z" fill="black"/>
<defs>
<clipPath id="clip0_137_11647">
<rect width="64" height="64" fill="white"/>
</clipPath>
</defs>
</svg>
